<svg width="30" height="30" viewBox="0 0 30 30" fill="none" xmlns="http://www.w3.org/2000/svg">
<path d="M25.0383 15.2742C25.1255 15.3613 25.1946 15.4647 25.2418 15.5785C25.289 15.6923 25.3133 15.8143 25.3133 15.9375C25.3133 16.0607 25.289 16.1827 25.2418 16.2965C25.1946 16.4103 25.1255 16.5137 25.0383 16.6008L15.6633 25.9758C15.5762 26.063 15.4728 26.1321 15.359 26.1793C15.2452 26.2265 15.1232 26.2507 15 26.2507C14.8768 26.2507 14.7548 26.2265 14.641 26.1793C14.5272 26.1321 14.4238 26.063 14.3368 25.9758L4.96175 16.6008C4.78584 16.4249 4.68701 16.1863 4.68701 15.9375C4.68701 15.6887 4.78584 15.4501 4.96175 15.2742C5.13766 15.0983 5.37625 14.9995 5.62503 14.9995C5.87381 14.9995 6.1124 15.0983 6.28831 15.2742L15 23.9871L23.7118 15.2742C23.7988 15.1871 23.9022 15.1179 24.016 15.0707C24.1298 15.0235 24.2518 14.9993 24.375 14.9993C24.4982 14.9993 24.6202 15.0235 24.734 15.0707C24.8478 15.1179 24.9512 15.1871 25.0383 15.2742ZM14.3368 16.6008C14.4238 16.6879 14.5272 16.7571 14.641 16.8043C14.7548 16.8515 14.8768 16.8757 15 16.8757C15.1232 16.8757 15.2452 16.8515 15.359 16.8043C15.4728 16.7571 15.5762 16.6879 15.6633 16.6008L25.0383 7.22578C25.2142 7.04987 25.3131 6.81128 25.3131 6.5625C25.3131 6.31372 25.2142 6.07513 25.0383 5.89922C24.8624 5.72331 24.6238 5.62448 24.375 5.62448C24.1263 5.62448 23.8877 5.72331 23.7118 5.89922L15 14.6121L6.28831 5.89922C6.1124 5.72331 5.87381 5.62448 5.62503 5.62448C5.37625 5.62448 5.13766 5.72331 4.96175 5.89922C4.78584 6.07513 4.68701 6.31372 4.68701 6.5625C4.68701 6.81128 4.78584 7.04987 4.96175 7.22578L14.3368 16.6008Z" fill="white"/>
</svg>
