<svg width="20" height="21" viewBox="0 0 20 21" fill="none" xmlns="http://www.w3.org/2000/svg">
<g clip-path="url(#clip0_98_84)">
<g filter="url(#filter0_bd_98_84)">
<path d="M11.6884 7.1961L4.68837 14.0711C4.57147 14.1861 4.41407 14.2505 4.25009 14.2505C4.08612 14.2505 3.92871 14.1861 3.81181 14.0711L0.811812 11.125C0.753282 11.0675 0.706661 10.9989 0.674611 10.9234C0.642562 10.8478 0.625711 10.7666 0.625022 10.6846C0.624333 10.6025 0.639818 10.521 0.670594 10.4449C0.70137 10.3688 0.746834 10.2996 0.80439 10.241C0.861946 10.1825 0.930467 10.1359 1.00604 10.1038C1.08161 10.0718 1.16276 10.0549 1.24485 10.0542C1.32693 10.0535 1.40835 10.069 1.48445 10.0998C1.56055 10.1306 1.62984 10.176 1.68837 10.2336L4.25009 12.7492L10.8126 6.30391C10.9309 6.18767 11.0905 6.12319 11.2564 6.12466C11.3385 6.12539 11.4197 6.14228 11.4953 6.17438C11.5709 6.20647 11.6394 6.25314 11.697 6.31173C11.7545 6.37031 11.8 6.43965 11.8307 6.5158C11.8615 6.59195 11.8769 6.67341 11.8762 6.75553C11.8755 6.83765 11.8586 6.91883 11.8265 6.99442C11.7944 7.07001 11.7477 7.13855 11.6892 7.1961H11.6884ZM19.1962 6.31173C19.1387 6.2531 19.0701 6.20639 18.9945 6.17426C18.9189 6.14214 18.8378 6.12523 18.7556 6.12451C18.6735 6.12378 18.592 6.13925 18.5159 6.17004C18.4397 6.20082 18.3704 6.24631 18.3118 6.30391L11.7493 12.7492L10.2782 11.3039C10.1599 11.1878 10.0003 11.1234 9.83453 11.1249C9.66875 11.1265 9.51037 11.1938 9.39423 11.3121C9.2781 11.4304 9.21372 11.59 9.21526 11.7558C9.21679 11.9216 9.28413 12.08 9.40244 12.1961L11.311 14.0711C11.4279 14.1861 11.5853 14.2505 11.7493 14.2505C11.9133 14.2505 12.0707 14.1861 12.1876 14.0711L19.1876 7.1961C19.2463 7.13862 19.293 7.07014 19.3252 6.99457C19.3574 6.919 19.3744 6.83783 19.3752 6.75569C19.376 6.67356 19.3606 6.59207 19.3299 6.51589C19.2992 6.43971 19.2537 6.37033 19.1962 6.31173Z" fill="url(#paint0_linear_98_84)"/>
</g>
</g>
<defs>
<filter id="filter0_bd_98_84" x="-14.375" y="-4.87552" width="48.75" height="38.1261" filterUnits="userSpaceOnUse" color-interpolation-filters="sRGB">
<feFlood flood-opacity="0" result="BackgroundImageFix"/>
<feGaussianBlur in="BackgroundImageFix" stdDeviation="2"/>
<feComposite in2="SourceAlpha" operator="in" result="effect1_backgroundBlur_98_84"/>
<feColorMatrix in="SourceAlpha" type="matrix" values="0 0 0 0 0 0 0 0 0 0 0 0 0 0 0 0 0 0 127 0" result="hardAlpha"/>
<feOffset dy="4"/>
<feGaussianBlur stdDeviation="7.5"/>
<feComposite in2="hardAlpha" operator="out"/>
<feColorMatrix type="matrix" values="0 0 0 0 0.984314 0 0 0 0 0.737255 0 0 0 0 0.0156863 0 0 0 0.5 0"/>
<feBlend mode="normal" in2="effect1_backgroundBlur_98_84" result="effect2_dropShadow_98_84"/>
<feBlend mode="normal" in="SourceGraphic" in2="effect2_dropShadow_98_84" result="shape"/>
</filter>
<linearGradient id="paint0_linear_98_84" x1="0.625" y1="10.1875" x2="19.3752" y2="10.1875" gradientUnits="userSpaceOnUse">
<stop stop-color="#FBBC04"/>
<stop offset="1" stop-color="#FFF1CA"/>
</linearGradient>
<clipPath id="clip0_98_84">
<rect width="20" height="20" fill="white" transform="translate(0 0.5)"/>
</clipPath>
</defs>
</svg>
