<svg width="430" height="56" viewBox="0 0 430 56" fill="none" xmlns="http://www.w3.org/2000/svg">
<rect width="478.074" height="35" transform="translate(-31.4858) rotate(2.47941)" fill="white"/>
<path d="M-45.9177 21.5158C-46.7969 21.4777 -47.5446 21.2692 -48.1608 20.8902C-48.7686 20.5035 -49.2263 19.9792 -49.534 19.3173C-49.8413 18.6474 -49.9757 17.8688 -49.9373 16.9817C-49.8989 16.0945 -49.6978 15.3345 -49.3341 14.7016C-48.9704 14.0688 -48.4692 13.59 -47.8306 13.2653C-47.1836 12.933 -46.4205 12.7859 -45.5414 12.8239C-44.9499 12.8495 -44.422 12.9565 -43.9577 13.1447C-43.4855 13.3334 -43.0846 13.5989 -42.7551 13.9415L-43.3116 15.1426C-43.6741 14.8226 -44.0284 14.591 -44.3745 14.4479C-44.7123 14.2972 -45.105 14.2121 -45.5526 14.1927C-46.4078 14.1557 -47.0744 14.3871 -47.5525 14.8869C-48.0222 15.379 -48.2777 16.1006 -48.3188 17.0517C-48.36 18.0028 -48.1681 18.7478 -47.743 19.2867C-47.3099 19.826 -46.6658 20.1141 -45.8106 20.1511C-45.363 20.1705 -44.9646 20.1237 -44.6154 20.0107C-44.2578 19.8901 -43.8845 19.682 -43.4953 19.3866L-43.0448 20.6312C-43.4023 20.9361 -43.8246 21.166 -44.3118 21.3211C-44.791 21.4765 -45.3263 21.5414 -45.9177 21.5158ZM-41.6377 21.581L-41.2717 13.1289L-39.7252 13.1959L-39.8778 16.7206L-35.5498 16.908L-35.3972 13.3833L-33.8507 13.4503L-34.2166 21.9023L-35.7632 21.8354L-35.6054 18.1908L-39.9333 18.0034L-40.0911 21.648L-41.6377 21.581ZM-32.3534 21.983L-31.9874 13.5309L-26.2928 13.7775L-26.3452 14.9884L-30.5533 14.8062L-30.6545 17.144L-26.7222 17.3143L-26.7751 18.5371L-30.7074 18.3668L-30.8139 20.8245L-26.6058 21.0068L-26.6588 22.2296L-32.3534 21.983ZM-21.1641 22.5876C-22.1152 22.5465 -22.9068 22.336 -23.539 21.9563C-24.1712 21.5766 -24.6371 21.056 -24.9367 20.3944C-25.2364 19.7328 -25.367 18.9584 -25.3286 18.0713C-25.2899 17.1761 -25.0806 16.4124 -24.7009 15.7803C-24.3209 15.1401 -23.7955 14.6584 -23.1249 14.3351C-22.446 14.0042 -21.6429 13.8588 -20.7158 13.8989C-20.1004 13.9256 -19.5645 14.0328 -19.1082 14.2207C-18.6516 14.4007 -18.2542 14.6541 -17.916 14.981L-18.4834 16.1576C-18.7305 15.9467 -18.9674 15.7763 -19.194 15.6464C-19.4206 15.5165 -19.6567 15.4221 -19.9024 15.3635C-20.1477 15.2968 -20.4343 15.2564 -20.762 15.2422C-21.6891 15.202 -22.4038 15.4353 -22.9062 15.9421C-23.4003 16.4412 -23.6684 17.1782 -23.7107 18.1533C-23.7529 19.1284 -23.5613 19.8814 -23.1358 20.4123C-22.7024 20.9436 -22.0022 21.2301 -21.0351 21.272C-20.7074 21.2862 -20.3783 21.2684 -20.0478 21.2187C-19.7094 21.1692 -19.3777 21.0915 -19.0528 20.9855L-19.3686 21.6204L-19.259 19.0908L-21.2372 19.0051L-21.1884 17.8782L-17.9274 18.0194L-18.1034 22.0836C-18.5037 22.2664 -18.978 22.402 -19.5264 22.4904C-20.0747 22.5788 -20.6206 22.6112 -21.1641 22.5876ZM-16.3606 22.6755L-15.9946 14.2234L-14.4481 14.2904L-14.814 22.7425L-16.3606 22.6755ZM-12.9536 22.8231L-12.5876 14.371L-8.8951 14.5309C-7.96797 14.571 -7.26216 14.8218 -6.77767 15.2832C-6.28518 15.7449 -6.0559 16.3674 -6.08981 17.1507C-6.11231 17.6702 -6.24741 18.1088 -6.49511 18.4664C-6.73482 18.8243 -7.0708 19.0941 -7.50306 19.2755C-7.93497 19.449 -8.43865 19.5233 -9.01411 19.4984L-8.8364 19.2778L-8.42879 19.2955C-8.0931 19.31 -7.79719 19.4109 -7.54105 19.5982C-7.28491 19.7854 -7.08071 20.0625 -6.92844 20.4295L-5.80832 23.1325L-7.51073 23.0587L-8.63868 20.2593C-8.73846 19.9747 -8.90234 19.7835 -9.13032 19.6855C-9.3503 19.5879 -9.62014 19.5322 -9.93984 19.5183L-11.2586 19.4612L-11.4071 22.89L-12.9536 22.8231ZM-11.2093 18.3223L-9.31506 18.4043C-8.77157 18.4279 -8.35511 18.3338 -8.06569 18.1221C-7.76792 17.9028 -7.60952 17.5733 -7.59048 17.1337C-7.57145 16.6941 -7.70095 16.3562 -7.97899 16.12C-8.24904 15.8841 -8.65581 15.7544 -9.1993 15.7308L-11.0935 15.6488L-11.2093 18.3223ZM-4.52374 23.1881L-4.15776 14.736L-2.80303 14.7947L-0.000589683 21.9186L-0.372242 21.9025L3.0355 15.0475L4.37824 15.1056L4.01226 23.5577L2.60957 23.497L2.88107 17.2268L3.31267 17.2455L0.19983 23.3926L-0.723305 23.3526L-3.29314 16.9595L-2.84956 16.9787L-3.12106 23.2488L-4.52374 23.1881ZM4.96077 23.5988L9.15117 15.3123L10.446 15.3683L13.9524 23.9881L12.3818 23.9201L11.4536 21.5017L12.0588 21.9483L6.98757 21.7287L7.65313 21.3371L6.51931 23.6662L4.96077 23.5988ZM9.71494 16.9942L7.85114 20.9253L7.55552 20.5401L11.5837 20.7146L11.3159 21.0753L9.76289 16.9963L9.71494 16.9942Z" fill="black"/>
<path d="M29.012 24.7603C28.1328 24.7222 27.3851 24.5137 26.7689 24.1347C26.1611 23.748 25.7033 23.2237 25.3957 22.5618C25.0884 21.8919 24.9539 21.1133 24.9924 20.2262C25.0308 19.339 25.2318 18.579 25.5956 17.9461C25.9593 17.3133 26.4605 16.8345 27.0991 16.5098C27.7461 16.1775 28.5092 16.0304 29.3883 16.0684C29.9798 16.0941 30.5077 16.201 30.9719 16.3892C31.4442 16.5779 31.8451 16.8434 32.1746 17.186L31.6181 18.3871C31.2556 18.0671 30.9013 17.8355 30.5552 17.6924C30.2174 17.5417 29.8247 17.4566 29.3771 17.4372C28.5219 17.4002 27.8553 17.6316 27.3772 18.1314C26.9075 18.6235 26.652 19.3451 26.6108 20.2962C26.5697 21.2474 26.7616 21.9924 27.1867 22.5312C27.6198 23.0705 28.2639 23.3586 29.1191 23.3957C29.5667 23.415 29.9651 23.3682 30.3143 23.2552C30.6719 23.1346 31.0452 22.9265 31.4343 22.6311L31.8849 23.8758C31.5274 24.1806 31.1051 24.4105 30.6179 24.5656C30.1387 24.721 29.6034 24.7859 29.012 24.7603ZM33.292 24.8255L33.658 16.3734L35.2045 16.4404L35.0519 19.9651L39.3799 20.1525L39.5325 16.6278L41.079 16.6948L40.713 25.1469L39.1665 25.0799L39.3243 21.4353L34.9964 21.2479L34.8386 24.8925L33.292 24.8255ZM42.5763 25.2275L42.9423 16.7755L48.6369 17.022L48.5845 18.2329L44.3764 18.0507L44.2752 20.3885L48.2075 20.5588L48.1546 21.7816L44.2222 21.6114L44.1158 24.069L48.3239 24.2513L48.2709 25.4741L42.5763 25.2275ZM53.7656 25.8322C52.8145 25.791 52.0228 25.5805 51.3907 25.2008C50.7585 24.8211 50.2926 24.3005 49.9929 23.6389C49.6933 22.9773 49.5627 22.2029 49.6011 21.3158C49.6398 20.4206 49.8491 19.6569 50.2288 19.0248C50.6088 18.3846 51.1341 17.9029 51.8048 17.5796C52.4837 17.2487 53.2868 17.1033 54.2139 17.1434C54.8293 17.1701 55.3652 17.2773 55.8215 17.4653C56.2781 17.6452 56.6755 17.8986 57.0137 18.2255L56.4463 19.4021C56.1992 19.1912 55.9623 19.0208 55.7357 18.8909C55.5091 18.761 55.273 18.6667 55.0273 18.608C54.7819 18.5413 54.4954 18.5009 54.1677 18.4867C53.2406 18.4465 52.5258 18.6798 52.0234 19.1866C51.5294 19.6857 51.2613 20.4227 51.219 21.3978C51.1768 22.3729 51.3684 23.1259 51.7938 23.6568C52.2273 24.1881 52.9275 24.4746 53.8946 24.5165C54.2223 24.5307 54.5514 24.5129 54.8819 24.4632C55.2203 24.4138 55.552 24.336 55.8769 24.23L55.5611 24.8649L55.6706 22.3353L53.6925 22.2496L53.7413 21.1227L57.0022 21.2639L56.8263 25.3281C56.426 25.5109 55.9517 25.6465 55.4033 25.7349C54.855 25.8233 54.3091 25.8557 53.7656 25.8322ZM58.5691 25.92L58.9351 17.468L60.4816 17.5349L60.1156 25.987L58.5691 25.92ZM61.9761 26.0676L62.342 17.6155L66.0346 17.7754C66.9617 17.8155 67.6675 18.0663 68.152 18.5277C68.6445 18.9894 68.8738 19.6119 68.8399 20.3952C68.8174 20.9147 68.6823 21.3533 68.4346 21.7109C68.1949 22.0688 67.8589 22.3386 67.4266 22.52C66.9947 22.6935 66.491 22.7678 65.9156 22.7429L66.0933 22.5224L66.5009 22.54C66.8366 22.5545 67.1325 22.6554 67.3886 22.8427C67.6448 23.0299 67.849 23.307 68.0012 23.674L69.1214 26.377L67.419 26.3032L66.291 23.5038C66.1912 23.2192 66.0273 23.028 65.7994 22.93C65.5794 22.8324 65.3095 22.7767 64.9898 22.7628L63.6711 22.7057L63.5226 26.1345L61.9761 26.0676ZM63.7204 21.5668L65.6146 21.6488C66.1581 21.6724 66.5746 21.5783 66.864 21.3666C67.1618 21.1473 67.3202 20.8178 67.3392 20.3782C67.3582 19.9387 67.2287 19.6007 66.9507 19.3645C66.6806 19.1286 66.2739 18.9989 65.7304 18.9753L63.8362 18.8933L63.7204 21.5668ZM70.4059 26.4326L70.7719 17.9805L72.1267 18.0392L74.9291 25.1631L74.5574 25.147L77.9652 18.292L79.3079 18.3501L78.9419 26.8022L77.5393 26.7415L77.8108 20.4713L78.2424 20.49L75.1295 26.6371L74.2064 26.5971L71.6365 20.204L72.0801 20.2232L71.8086 26.4933L70.4059 26.4326ZM79.8905 26.8433L84.0809 18.5568L85.3756 18.6129L88.882 27.2326L87.3115 27.1646L86.3833 24.7462L86.9885 25.1928L81.9173 24.9732L82.5828 24.5816L81.449 26.9108L79.8905 26.8433ZM84.6446 20.2388L82.7808 24.1698L82.4852 23.7847L86.5134 23.9591L86.2456 24.3198L84.6926 20.2408L84.6446 20.2388Z" fill="black"/>
<path d="M103.942 28.0049C103.063 27.9669 102.315 27.7583 101.699 27.3793C101.091 26.9926 100.634 26.4684 100.326 25.8064C100.019 25.1365 99.8841 24.358 99.9225 23.4708C99.9609 22.5836 100.162 21.8236 100.526 21.1908C100.889 20.5579 101.391 20.0791 102.029 19.7545C102.676 19.4221 103.439 19.275 104.319 19.3131C104.91 19.3387 105.438 19.4456 105.902 19.6339C106.374 19.8225 106.775 20.0881 107.105 20.4307L106.548 21.6317C106.186 21.3117 105.831 21.0802 105.485 20.9371C105.148 20.7863 104.755 20.7012 104.307 20.6819C103.452 20.6448 102.785 20.8762 102.307 21.376C101.838 21.8681 101.582 22.5898 101.541 23.5409C101.5 24.492 101.692 25.237 102.117 25.7759C102.55 26.3151 103.194 26.6033 104.049 26.6403C104.497 26.6597 104.895 26.6129 105.244 26.4999C105.602 26.3792 105.975 26.1712 106.365 25.8757L106.815 27.1204C106.458 27.4252 106.035 27.6551 105.548 27.8102C105.069 27.9656 104.534 28.0305 103.942 28.0049ZM108.222 28.0701L108.588 19.6181L110.135 19.685L109.982 23.2097L114.31 23.3971L114.463 19.8724L116.009 19.9394L115.643 28.3915L114.097 28.3245L114.254 24.6799L109.927 24.4925L109.769 28.1371L108.222 28.0701ZM117.506 28.4722L117.872 20.0201L123.567 20.2667L123.515 21.4775L119.307 21.2953L119.205 23.6331L123.138 23.8034L123.085 25.0263L119.152 24.856L119.046 27.3137L123.254 27.4959L123.201 28.7187L117.506 28.4722ZM128.696 29.0768C127.745 29.0356 126.953 28.8252 126.321 28.4455C125.689 28.0657 125.223 27.5451 124.923 26.8835C124.623 26.2219 124.493 25.4476 124.531 24.5604C124.57 23.6652 124.779 22.9016 125.159 22.2694C125.539 21.6292 126.064 21.1475 126.735 20.8242C127.414 20.4933 128.217 20.3479 129.144 20.388C129.759 20.4147 130.295 20.522 130.752 20.7099C131.208 20.8898 131.606 21.1432 131.944 21.4702L131.376 22.6467C131.129 22.4358 130.892 22.2654 130.666 22.1355C130.439 22.0056 130.203 21.9113 129.957 21.8526C129.712 21.7859 129.426 21.7455 129.098 21.7313C128.171 21.6912 127.456 21.9245 126.954 22.4312C126.46 22.9303 126.191 23.6674 126.149 24.6425C126.107 25.6176 126.299 26.3705 126.724 26.9014C127.157 27.4327 127.858 27.7193 128.825 27.7611C129.152 27.7753 129.482 27.7575 129.812 27.7078C130.15 27.6584 130.482 27.5807 130.807 27.4746L130.491 28.1096L130.601 25.5799L128.623 25.4943L128.671 24.3673L131.932 24.5085L131.756 28.5727C131.356 28.7556 130.882 28.8912 130.334 28.9795C129.785 29.0679 129.239 29.1003 128.696 29.0768ZM133.499 29.1647L133.865 20.7126L135.412 20.7796L135.046 29.2316L133.499 29.1647ZM136.906 29.3122L137.272 20.8601L140.965 21.02C141.892 21.0601 142.598 21.3109 143.082 21.7723C143.575 22.234 143.804 22.8565 143.77 23.6398C143.748 24.1593 143.612 24.5979 143.365 24.9555C143.125 25.3135 142.789 25.5832 142.357 25.7647C141.925 25.9381 141.421 26.0124 140.846 25.9875L141.023 25.767L141.431 25.7846C141.767 25.7992 142.063 25.9001 142.319 26.0873C142.575 26.2746 142.779 26.5517 142.931 26.9186L144.052 29.6216L142.349 29.5479L141.221 26.7485C141.121 26.4639 140.958 26.2726 140.73 26.1746C140.51 26.077 140.24 26.0213 139.92 26.0075L138.601 25.9504L138.453 29.3792L136.906 29.3122ZM138.651 24.8114L140.545 24.8935C141.088 24.917 141.505 24.8229 141.794 24.6112C142.092 24.3919 142.25 24.0625 142.269 23.6229C142.288 23.1833 142.159 22.8454 141.881 22.6091C141.611 22.3732 141.204 22.2435 140.661 22.22L138.766 22.1379L138.651 24.8114ZM145.336 29.6772L145.702 21.2251L147.057 21.2838L149.859 28.4077L149.488 28.3916L152.895 21.5366L154.238 21.5947L153.872 30.0468L152.469 29.9861L152.741 23.716L153.173 23.7347L150.06 29.8817L149.137 29.8418L146.567 23.4486L147.01 23.4678L146.739 29.7379L145.336 29.6772ZM154.821 30.0879L159.011 21.8014L160.306 21.8575L163.812 30.4772L162.242 30.4092L161.313 27.9908L161.919 28.4374L156.847 28.2178L157.513 27.8263L156.379 30.1554L154.821 30.0879ZM159.575 23.4834L157.711 27.4144L157.415 27.0293L161.444 27.2037L161.176 27.5645L159.623 23.4855L159.575 23.4834Z" fill="black"/>
<path d="M178.872 31.2494C177.993 31.2114 177.245 31.0028 176.629 30.6238C176.021 30.2372 175.563 29.7129 175.256 29.0509C174.948 28.381 174.814 27.6025 174.852 26.7153C174.891 25.8281 175.092 25.0681 175.455 24.4353C175.819 23.8024 176.32 23.3236 176.959 22.999C177.606 22.6666 178.369 22.5195 179.248 22.5576C179.84 22.5832 180.368 22.6901 180.832 22.8784C181.304 23.067 181.705 23.3326 182.034 23.6752L181.478 24.8762C181.115 24.5562 180.761 24.3247 180.415 24.1816C180.077 24.0308 179.685 23.9458 179.237 23.9264C178.382 23.8893 177.715 24.1207 177.237 24.6205C176.767 25.1126 176.512 25.8343 176.471 26.7854C176.43 27.7365 176.621 28.4815 177.047 29.0204C177.48 29.5596 178.124 29.8478 178.979 29.8848C179.427 29.9042 179.825 29.8574 180.174 29.7444C180.532 29.6237 180.905 29.4157 181.294 29.1202L181.745 30.3649C181.387 30.6697 180.965 30.8997 180.478 31.0547C179.999 31.2101 179.463 31.275 178.872 31.2494ZM183.152 31.3147L183.518 22.8626L185.064 22.9295L184.912 26.4542L189.24 26.6416L189.392 23.1169L190.939 23.1839L190.573 31.636L189.026 31.569L189.184 27.9244L184.856 27.737L184.698 31.3816L183.152 31.3147ZM192.436 31.7167L192.802 23.2646L198.497 23.5112L198.444 24.722L194.236 24.5398L194.135 26.8776L198.067 27.0479L198.014 28.2708L194.082 28.1005L193.976 30.5582L198.184 30.7404L198.131 31.9633L192.436 31.7167ZM203.625 32.3213C202.674 32.2801 201.883 32.0697 201.251 31.69C200.618 31.3103 200.152 30.7896 199.853 30.128C199.553 29.4664 199.423 28.6921 199.461 27.8049C199.5 26.9097 199.709 26.1461 200.089 25.5139C200.469 24.8738 200.994 24.392 201.665 24.0687C202.344 23.7378 203.147 23.5924 204.074 23.6325C204.689 23.6592 205.225 23.7665 205.681 23.9544C206.138 24.1343 206.535 24.3877 206.874 24.7147L206.306 25.8912C206.059 25.6803 205.822 25.5099 205.596 25.38C205.369 25.2501 205.133 25.1558 204.887 25.0971C204.642 25.0304 204.355 24.99 204.028 24.9758C203.1 24.9357 202.386 25.169 201.883 25.6757C201.389 26.1748 201.121 26.9119 201.079 27.887C201.037 28.8621 201.228 29.6151 201.654 30.146C202.087 30.6772 202.787 30.9638 203.754 31.0056C204.082 31.0198 204.411 31.002 204.742 30.9523C205.08 30.9029 205.412 30.8252 205.737 30.7191L205.421 31.3541L205.531 28.8244L203.552 28.7388L203.601 27.6118L206.862 27.753L206.686 31.8172C206.286 32.0001 205.812 32.1357 205.263 32.224C204.715 32.3124 204.169 32.3448 203.625 32.3213ZM208.429 32.4092L208.795 23.9571L210.341 24.0241L209.976 32.4761L208.429 32.4092ZM211.836 32.5567L212.202 24.1046L215.894 24.2645C216.822 24.3047 217.527 24.5554 218.012 25.0168C218.504 25.4785 218.734 26.1011 218.7 26.8843C218.677 27.4038 218.542 27.8424 218.294 28.2C218.055 28.558 217.719 28.8277 217.286 29.0092C216.855 29.1826 216.351 29.2569 215.775 29.232L215.953 29.0115L216.361 29.0291C216.696 29.0437 216.992 29.1446 217.249 29.3318C217.505 29.5191 217.709 29.7962 217.861 30.1631L218.981 32.8661L217.279 32.7924L216.151 29.993C216.051 29.7084 215.887 29.5171 215.659 29.4192C215.439 29.3215 215.169 29.2658 214.85 29.252L213.531 29.1949L213.382 32.6237L211.836 32.5567ZM213.58 28.0559L215.474 28.138C216.018 28.1615 216.434 28.0674 216.724 27.8557C217.022 27.6364 217.18 27.307 217.199 26.8674C217.218 26.4278 217.089 26.0899 216.811 25.8536C216.541 25.6177 216.134 25.488 215.59 25.4645L213.696 25.3824L213.58 28.0559ZM220.266 32.9217L220.632 24.4696L221.987 24.5283L224.789 31.6522L224.417 31.6361L227.825 24.7811L229.168 24.8393L228.802 33.2913L227.399 33.2306L227.671 26.9605L228.102 26.9792L224.989 33.1263L224.066 33.0863L221.496 26.6931L221.94 26.7123L221.668 32.9825L220.266 32.9217ZM229.75 33.3324L233.941 25.0459L235.236 25.102L238.742 33.7217L237.171 33.6537L236.243 31.2353L236.848 31.6819L231.777 31.4623L232.443 31.0708L231.309 33.3999L229.75 33.3324ZM234.504 26.7279L232.641 30.6589L232.345 30.2738L236.373 30.4482L236.105 30.809L234.552 26.73L234.504 26.7279Z" fill="black"/>
<path d="M253.802 34.4939C252.922 34.4559 252.175 34.2473 251.558 33.8683C250.951 33.4817 250.493 32.9574 250.185 32.2954C249.878 31.6255 249.743 30.847 249.782 29.9598C249.82 29.0726 250.021 28.3126 250.385 27.6798C250.749 27.0469 251.25 26.5681 251.889 26.2435C252.536 25.9111 253.299 25.764 254.178 25.8021C254.769 25.8277 255.297 25.9346 255.761 26.1229C256.234 26.3115 256.635 26.5771 256.964 26.9197L256.408 28.1207C256.045 27.8007 255.691 27.5692 255.345 27.4261C255.007 27.2753 254.614 27.1903 254.167 27.1709C253.311 27.1338 252.645 27.3652 252.167 27.865C251.697 28.3572 251.442 29.0788 251.4 30.0299C251.359 30.981 251.551 31.726 251.976 32.2649C252.409 32.8041 253.053 33.0923 253.909 33.1293C254.356 33.1487 254.755 33.1019 255.104 32.9889C255.461 32.8682 255.835 32.6602 256.224 32.3647L256.674 33.6094C256.317 33.9142 255.895 34.1442 255.407 34.2992C254.928 34.4546 254.393 34.5196 253.802 34.4939ZM258.082 34.5592L258.448 26.1071L259.994 26.174L259.841 29.6987L264.169 29.8861L264.322 26.3614L265.869 26.4284L265.503 34.8805L263.956 34.8135L264.114 31.1689L259.786 30.9815L259.628 34.6261L258.082 34.5592ZM267.366 34.9612L267.732 26.5091L273.426 26.7557L273.374 27.9665L269.166 27.7843L269.065 30.1221L272.997 30.2924L272.944 31.5153L269.012 31.345L268.905 33.8027L273.113 33.9849L273.06 35.2078L267.366 34.9612ZM278.555 35.5658C277.604 35.5246 276.812 35.3142 276.18 34.9345C275.548 34.5548 275.082 34.0341 274.782 33.3725C274.483 32.711 274.352 31.9366 274.391 31.0494C274.429 30.1542 274.639 29.3906 275.018 28.7584C275.398 28.1183 275.924 27.6365 276.594 27.3132C277.273 26.9823 278.076 26.8369 279.003 26.8771C279.619 26.9037 280.155 27.011 280.611 27.1989C281.068 27.3788 281.465 27.6323 281.803 27.9592L281.236 29.1357C280.989 28.9249 280.752 28.7544 280.525 28.6245C280.299 28.4946 280.063 28.4003 279.817 28.3416C279.571 28.2749 279.285 28.2345 278.957 28.2203C278.03 28.1802 277.315 28.4135 276.813 28.9202C276.319 29.4193 276.051 30.1564 276.009 31.1315C275.966 32.1066 276.158 32.8596 276.583 33.3905C277.017 33.9217 277.717 34.2083 278.684 34.2501C279.012 34.2643 279.341 34.2466 279.671 34.1968C280.01 34.1474 280.342 34.0697 280.666 33.9636L280.351 34.5986L280.46 32.0689L278.482 31.9833L278.531 30.8563L281.792 30.9975L281.616 35.0617C281.216 35.2446 280.741 35.3802 280.193 35.4686C279.645 35.5569 279.099 35.5893 278.555 35.5658ZM283.359 35.6537L283.725 27.2016L285.271 27.2686L284.905 35.7206L283.359 35.6537ZM286.766 35.8012L287.132 27.3491L290.824 27.509C291.751 27.5492 292.457 27.7999 292.942 28.2613C293.434 28.7231 293.663 29.3456 293.629 30.1288C293.607 30.6483 293.472 31.0869 293.224 31.4445C292.984 31.8025 292.648 32.0722 292.216 32.2537C291.784 32.4272 291.281 32.5014 290.705 32.4765L290.883 32.256L291.29 32.2736C291.626 32.2882 291.922 32.3891 292.178 32.5763C292.434 32.7636 292.639 33.0407 292.791 33.4076L293.911 36.1106L292.209 36.0369L291.081 33.2375C290.981 32.9529 290.817 32.7616 290.589 32.6637C290.369 32.5661 290.099 32.5103 289.779 32.4965L288.461 32.4394L288.312 35.8682L286.766 35.8012ZM288.51 31.3004L290.404 31.3825C290.948 31.406 291.364 31.3119 291.654 31.1003C291.951 30.8809 292.11 30.5515 292.129 30.1119C292.148 29.6723 292.018 29.3344 291.74 29.0981C291.47 28.8622 291.063 28.7325 290.52 28.709L288.626 28.627L288.51 31.3004ZM295.195 36.1662L295.561 27.7141L296.916 27.7728L299.719 34.8967L299.347 34.8806L302.755 28.0256L304.097 28.0838L303.731 36.5358L302.329 36.4751L302.6 30.205L303.032 30.2237L299.919 36.3708L298.996 36.3308L296.426 29.9376L296.87 29.9568L296.598 36.227L295.195 36.1662ZM304.68 36.5769L308.87 28.2904L310.165 28.3465L313.672 36.9663L312.101 36.8983L311.173 34.4798L311.778 34.9264L306.707 34.7068L307.372 34.3153L306.239 36.6444L304.68 36.5769ZM309.434 29.9724L307.57 33.9034L307.275 33.5183L311.303 33.6927L311.035 34.0535L309.482 29.9745L309.434 29.9724Z" fill="black"/>
<path d="M328.731 37.7384C327.852 37.7004 327.104 37.4918 326.488 37.1128C325.88 36.7262 325.423 36.2019 325.115 35.5399C324.808 34.87 324.673 34.0915 324.712 33.2043C324.75 32.3171 324.951 31.5571 325.315 30.9243C325.679 30.2914 326.18 29.8126 326.818 29.488C327.465 29.1556 328.228 29.0085 329.108 29.0466C329.699 29.0722 330.227 29.1791 330.691 29.3674C331.163 29.556 331.564 29.8216 331.894 30.1642L331.337 31.3652C330.975 31.0452 330.621 30.8137 330.274 30.6706C329.937 30.5198 329.544 30.4348 329.096 30.4154C328.241 30.3784 327.575 30.6097 327.096 31.1095C326.627 31.6017 326.371 32.3233 326.33 33.2744C326.289 34.2255 326.481 34.9705 326.906 35.5094C327.339 36.0486 327.983 36.3368 328.838 36.3738C329.286 36.3932 329.684 36.3464 330.034 36.2334C330.391 36.1127 330.764 35.9047 331.154 35.6092L331.604 36.8539C331.247 37.1587 330.824 37.3887 330.337 37.5437C329.858 37.6992 329.323 37.7641 328.731 37.7384ZM333.011 37.8037L333.377 29.3516L334.924 29.4186L334.771 32.9432L339.099 33.1307L339.252 29.606L340.798 29.6729L340.432 38.125L338.886 38.058L339.044 34.4134L334.716 34.226L334.558 37.8706L333.011 37.8037ZM342.296 38.2057L342.661 29.7536L348.356 30.0002L348.304 31.2111L344.096 31.0288L343.994 33.3666L347.927 33.5369L347.874 34.7598L343.941 34.5895L343.835 37.0472L348.043 37.2294L347.99 38.4523L342.296 38.2057ZM353.485 38.8103C352.534 38.7691 351.742 38.5587 351.11 38.179C350.478 37.7993 350.012 37.2786 349.712 36.617C349.413 35.9555 349.282 35.1811 349.32 34.2939C349.359 33.3988 349.568 32.6351 349.948 32.0029C350.328 31.3628 350.853 30.881 351.524 30.5577C352.203 30.2268 353.006 30.0814 353.933 30.1216C354.549 30.1482 355.084 30.2555 355.541 30.4434C355.997 30.6233 356.395 30.8768 356.733 31.2037L356.166 32.3802C355.918 32.1694 355.682 31.999 355.455 31.869C355.228 31.7391 354.992 31.6448 354.747 31.5861C354.501 31.5194 354.215 31.479 353.887 31.4648C352.96 31.4247 352.245 31.658 351.743 32.1647C351.249 32.6638 350.98 33.4009 350.938 34.376C350.896 35.3511 351.088 36.1041 351.513 36.635C351.947 37.1662 352.647 37.4528 353.614 37.4947C353.942 37.5088 354.271 37.4911 354.601 37.4413C354.94 37.3919 355.271 37.3142 355.596 37.2081L355.28 37.8431L355.39 35.3134L353.412 35.2278L353.461 34.1008L356.721 34.242L356.545 38.3062C356.145 38.4891 355.671 38.6247 355.123 38.7131C354.574 38.8014 354.028 38.8338 353.485 38.8103ZM358.288 38.8982L358.654 30.4461L360.201 30.5131L359.835 38.9652L358.288 38.8982ZM361.695 39.0457L362.061 30.5936L365.754 30.7535C366.681 30.7937 367.387 31.0444 367.871 31.5058C368.364 31.9676 368.593 32.5901 368.559 33.3733C368.537 33.8928 368.402 34.3314 368.154 34.689C367.914 35.047 367.578 35.3167 367.146 35.4982C366.714 35.6717 366.21 35.7459 365.635 35.721L365.813 35.5005L366.22 35.5182C366.556 35.5327 366.852 35.6336 367.108 35.8208C367.364 36.0081 367.568 36.2852 367.72 36.6521L368.841 39.3551L367.138 39.2814L366.01 36.482C365.91 36.1974 365.747 36.0061 365.519 35.9082C365.299 35.8106 365.029 35.7548 364.709 35.741L363.39 35.6839L363.242 39.1127L361.695 39.0457ZM363.44 34.545L365.334 34.627C365.877 34.6505 366.294 34.5564 366.583 34.3448C366.881 34.1254 367.039 33.796 367.058 33.3564C367.077 32.9168 366.948 32.5789 366.67 32.3426C366.4 32.1067 365.993 31.977 365.45 31.9535L363.555 31.8715L363.44 34.545ZM370.125 39.4107L370.491 30.9587L371.846 31.0173L374.648 38.1412L374.277 38.1251L377.684 31.2701L379.027 31.3283L378.661 39.7803L377.258 39.7196L377.53 33.4495L377.962 33.4682L374.849 39.6153L373.926 39.5753L371.356 33.1821L371.799 33.2013L371.528 39.4715L370.125 39.4107ZM379.61 39.8214L383.8 31.5349L385.095 31.591L388.601 40.2108L387.031 40.1428L386.103 37.7243L386.708 38.1709L381.636 37.9513L382.302 37.5598L381.168 39.8889L379.61 39.8214ZM384.364 33.2169L382.5 37.148L382.204 36.7628L386.233 36.9372L385.965 37.298L384.412 33.219L384.364 33.2169Z" fill="black"/>
<path d="M403.661 40.983C402.782 40.9449 402.034 40.7363 401.418 40.3573C400.81 39.9707 400.352 39.4464 400.045 38.7845C399.737 38.1145 399.603 37.336 399.641 36.4488C399.68 35.5617 399.881 34.8016 400.244 34.1688C400.608 33.5359 401.109 33.0572 401.748 32.7325C402.395 32.4002 403.158 32.253 404.037 32.2911C404.629 32.3167 405.157 32.4236 405.621 32.6119C406.093 32.8005 406.494 33.0661 406.824 33.4087L406.267 34.6097C405.905 34.2897 405.55 34.0582 405.204 33.9151C404.866 33.7643 404.474 33.6793 404.026 33.6599C403.171 33.6229 402.504 33.8542 402.026 34.354C401.556 34.8462 401.301 35.5678 401.26 36.5189C401.219 37.47 401.411 38.215 401.836 38.7539C402.269 39.2931 402.913 39.5813 403.768 39.6183C404.216 39.6377 404.614 39.5909 404.963 39.4779C405.321 39.3572 405.694 39.1492 406.083 38.8538L406.534 40.0984C406.176 40.4032 405.754 40.6332 405.267 40.7882C404.788 40.9437 404.252 41.0086 403.661 40.983ZM407.941 41.0482L408.307 32.5961L409.853 32.6631L409.701 36.1878L414.029 36.3752L414.181 32.8505L415.728 32.9174L415.362 41.3695L413.815 41.3025L413.973 37.658L409.645 37.4706L409.487 41.1151L407.941 41.0482ZM417.225 41.4502L417.591 32.9981L423.286 33.2447L423.233 34.4556L419.025 34.2733L418.924 36.6112L422.856 36.7814L422.803 38.0043L418.871 37.834L418.765 40.2917L422.973 40.4739L422.92 41.6968L417.225 41.4502ZM428.415 42.0548C427.463 42.0136 426.672 41.8032 426.04 41.4235C425.407 41.0438 424.942 40.5231 424.642 39.8615C424.342 39.2 424.212 38.4256 424.25 37.5384C424.289 36.6433 424.498 35.8796 424.878 35.2474C425.258 34.6073 425.783 34.1255 426.454 33.8023C427.133 33.4713 427.936 33.3259 428.863 33.3661C429.478 33.3927 430.014 33.5 430.47 33.6879C430.927 33.8678 431.324 34.1213 431.663 34.4482L431.095 35.6248C430.848 35.4139 430.611 35.2435 430.385 35.1135C430.158 34.9836 429.922 34.8893 429.676 34.8306C429.431 34.7639 429.144 34.7235 428.817 34.7093C427.89 34.6692 427.175 34.9025 426.672 35.4092C426.178 35.9083 425.91 36.6454 425.868 37.6205C425.826 38.5956 426.017 39.3486 426.443 39.8795C426.876 40.4107 427.576 40.6973 428.544 40.7392C428.871 40.7533 429.2 40.7356 429.531 40.6858C429.869 40.6364 430.201 40.5587 430.526 40.4526L430.21 41.0876L430.32 38.5579L428.341 38.4723L428.39 37.3453L431.651 37.4865L431.475 41.5507C431.075 41.7336 430.601 41.8692 430.052 41.9576C429.504 42.0459 428.958 42.0783 428.415 42.0548ZM433.218 42.1427L433.584 33.6906L435.131 33.7576L434.765 42.2097L433.218 42.1427ZM436.625 42.2902L436.991 33.8381L440.684 33.998C441.611 34.0382 442.316 34.2889 442.801 34.7503C443.293 35.2121 443.523 35.8346 443.489 36.6178C443.466 37.1374 443.331 37.5759 443.084 37.9335C442.844 38.2915 442.508 38.5612 442.076 38.7427C441.644 38.9162 441.14 38.9904 440.565 38.9655L440.742 38.745L441.15 38.7627C441.486 38.7772 441.781 38.8781 442.038 39.0653C442.294 39.2526 442.498 39.5297 442.65 39.8966L443.77 42.5996L442.068 42.5259L440.94 39.7265C440.84 39.4419 440.676 39.2506 440.448 39.1527C440.228 39.0551 439.958 38.9993 439.639 38.9855L438.32 38.9284L438.172 42.3572L436.625 42.2902ZM438.369 37.7895L440.264 37.8715C440.807 37.895 441.223 37.8009 441.513 37.5893C441.811 37.3699 441.969 37.0405 441.988 36.6009C442.007 36.1613 441.878 35.8234 441.6 35.5871C441.33 35.3512 440.923 35.2215 440.379 35.198L438.485 35.116L438.369 37.7895ZM445.055 42.6552L445.421 34.2032L446.776 34.2618L449.578 41.3857L449.206 41.3696L452.614 34.5146L453.957 34.5728L453.591 43.0249L452.188 42.9641L452.46 36.694L452.891 36.7127L449.778 42.8598L448.855 42.8198L446.285 36.4266L446.729 36.4459L446.458 42.716L445.055 42.6552ZM454.539 43.0659L458.73 34.7794L460.025 34.8355L463.531 43.4553L461.96 43.3873L461.032 40.9688L461.637 41.4154L456.566 41.1959L457.232 40.8043L456.098 43.1334L454.539 43.0659ZM459.294 36.4614L457.43 40.3925L457.134 40.0073L461.162 40.1817L460.895 40.5425L459.342 36.4635L459.294 36.4614Z" fill="black"/>
</svg>
