<svg width="16" height="16" viewBox="0 0 16 16" fill="none" xmlns="http://www.w3.org/2000/svg">
<path d="M15.2594 4.23209L11.768 0.741462C11.6519 0.625358 11.5141 0.533258 11.3624 0.470422C11.2107 0.407586 11.0482 0.375244 10.884 0.375244C10.7198 0.375244 10.5572 0.407586 10.4056 0.470422C10.2539 0.533258 10.1161 0.625358 10 0.741462L0.366412 10.3751C0.249834 10.4907 0.157407 10.6284 0.0945056 10.7801C0.0316038 10.9318 -0.000518312 11.0944 6.32418e-06 11.2586V14.7501C6.32418e-06 15.0816 0.131702 15.3995 0.366123 15.6339C0.600543 15.8684 0.918486 16.0001 1.25001 16.0001H4.74141C4.90563 16.0006 5.0683 15.9685 5.21999 15.9056C5.37168 15.8427 5.50935 15.7502 5.62501 15.6336L12.1617 9.09771L12.4336 10.1836L9.5586 13.0579C9.44133 13.175 9.3754 13.334 9.37533 13.4998C9.37525 13.6656 9.44104 13.8246 9.55821 13.9419C9.67538 14.0591 9.83434 14.1251 10.0001 14.1251C10.1659 14.1252 10.3249 14.0594 10.4422 13.9422L13.5672 10.8172C13.6436 10.7409 13.699 10.6462 13.7279 10.5421C13.7568 10.438 13.7582 10.3283 13.732 10.2235L13.193 8.06646L15.2594 6.00006C15.3755 5.88398 15.4676 5.74617 15.5304 5.59449C15.5933 5.44282 15.6256 5.28025 15.6256 5.11607C15.6256 4.95189 15.5933 4.78933 15.5304 4.63765C15.4676 4.48597 15.3755 4.34816 15.2594 4.23209ZM1.25001 12.5086L3.49141 14.7501H1.25001V12.5086ZM5.00001 14.4915L1.5086 11.0001L8.12501 4.38365L11.6164 7.87506L5.00001 14.4915ZM12.5 6.99146L9.00938 3.50006L10.8844 1.62506L14.375 5.11646L12.5 6.99146Z" fill="white"/>
</svg>
