<svg width="29" height="29" viewBox="0 0 29 29" fill="none" xmlns="http://www.w3.org/2000/svg">
<path d="M27.2708 19.2834L20.646 16.3148L20.6277 16.3064C20.2837 16.1593 19.9086 16.1002 19.5361 16.1346C19.1636 16.169 18.8056 16.2957 18.4944 16.5032C18.4577 16.5274 18.4225 16.5537 18.3889 16.582L14.9661 19.5C12.7977 18.4467 10.5589 16.2248 9.50564 14.0845L12.4278 10.6096C12.456 10.5745 12.4827 10.5393 12.508 10.5014C12.7111 10.191 12.8343 9.83526 12.8667 9.46576C12.8991 9.09628 12.8396 8.72451 12.6936 8.38355V8.36668L9.71658 1.73058C9.52355 1.28518 9.19166 0.914137 8.77043 0.672857C8.34921 0.431578 7.86124 0.332998 7.37939 0.391835C5.47388 0.642578 3.7248 1.57838 2.45883 3.02447C1.19285 4.47055 0.496567 6.32802 0.500013 8.24996C0.500013 19.4156 9.58439 28.5 20.75 28.5C22.6719 28.5034 24.5294 27.8071 25.9755 26.5411C27.4216 25.2752 28.3574 23.5261 28.6081 21.6206C28.6671 21.1389 28.5687 20.6511 28.3277 20.2298C28.0867 19.8086 27.7159 19.4766 27.2708 19.2834ZM20.75 26.25C15.9777 26.2447 11.4024 24.3467 8.02785 20.9721C4.65332 17.5976 2.75522 13.0223 2.75001 8.24996C2.74472 6.87674 3.23946 5.54855 4.14183 4.51342C5.0442 3.4783 6.2925 2.80702 7.65361 2.62496C7.65305 2.63057 7.65305 2.63622 7.65361 2.64183L10.6067 9.25121L7.70001 12.7303C7.67051 12.7642 7.64371 12.8004 7.61986 12.8386C7.40824 13.1633 7.28409 13.5372 7.25946 13.924C7.23482 14.3108 7.31052 14.6974 7.47923 15.0464C8.75329 17.6521 11.3788 20.2579 14.0127 21.5306C14.3642 21.6977 14.753 21.7708 15.1412 21.7427C15.5295 21.7146 15.9037 21.5863 16.2275 21.3703C16.2636 21.3459 16.2984 21.3197 16.3316 21.2915L19.7502 18.375L26.3595 21.3351C26.3595 21.3351 26.3708 21.3351 26.375 21.3351C26.1952 22.6981 25.5249 23.949 24.4896 24.8536C23.4543 25.7582 22.1248 26.2546 20.75 26.25Z" fill="black"/>
</svg>
