<svg width="25" height="25" viewBox="0 0 25 25" fill="none" xmlns="http://www.w3.org/2000/svg">
<path d="M14.9067 2.38242C14.9385 2.26344 14.9934 2.1519 15.0684 2.05417C15.1433 1.95644 15.2368 1.87443 15.3434 1.81283C15.4501 1.75124 15.5678 1.71126 15.6899 1.69518C15.8121 1.67911 15.9361 1.68725 16.0551 1.71914C17.7931 2.1726 19.3787 3.08115 20.6488 4.35121C21.9189 5.62128 22.8274 7.20696 23.2809 8.94492C23.3128 9.06388 23.3209 9.18796 23.3048 9.31007C23.2888 9.43217 23.2488 9.54992 23.1872 9.65657C23.1256 9.76322 23.0436 9.85669 22.9458 9.93163C22.8481 10.0066 22.7366 10.0615 22.6176 10.0934C22.5384 10.1142 22.4569 10.1248 22.375 10.125C22.1684 10.125 21.9676 10.0567 21.8038 9.93087C21.64 9.80499 21.5223 9.62853 21.4692 9.42891C21.0993 8.01014 20.3578 6.71567 19.3211 5.67893C18.2843 4.64219 16.9899 3.90069 15.5711 3.53086C15.452 3.49916 15.3404 3.4443 15.2425 3.3694C15.1446 3.29451 15.0625 3.20106 15.0008 3.0944C14.9391 2.98773 14.899 2.86995 14.8828 2.74778C14.8667 2.62561 14.8748 2.50146 14.9067 2.38242ZM14.6336 7.28086C16.2496 7.71211 17.2879 8.75039 17.7192 10.3664C17.7723 10.566 17.89 10.7425 18.0538 10.8684C18.2176 10.9942 18.4184 11.0625 18.625 11.0625C18.7069 11.0623 18.7884 11.0517 18.8676 11.0309C18.9866 10.999 19.0981 10.9441 19.1958 10.8691C19.2936 10.7942 19.3756 10.7007 19.4372 10.5941C19.4988 10.4874 19.5388 10.3697 19.5548 10.2476C19.5709 10.1255 19.5628 10.0014 19.5309 9.88242C18.9309 7.63711 17.3629 6.06914 15.1176 5.46914C14.8773 5.40496 14.6214 5.43885 14.4062 5.56335C14.1909 5.68785 14.0339 5.89276 13.9697 6.13301C13.9056 6.37326 13.9394 6.62916 14.0639 6.84442C14.1884 7.05969 14.3934 7.21668 14.6336 7.28086ZM24.2359 18.4547C24.027 20.0426 23.2472 21.5002 22.0421 22.5552C20.837 23.6101 19.2891 24.1904 17.6875 24.1875C8.38282 24.1875 0.812511 16.6172 0.812511 7.3125C0.80964 5.71089 1.38988 4.16299 2.44485 2.95792C3.49983 1.75285 4.9574 0.973015 6.54532 0.764062C6.94687 0.715032 7.35351 0.797181 7.70453 0.998248C8.05555 1.19931 8.33213 1.50851 8.49298 1.87969L10.968 7.40508V7.41914C11.0911 7.70327 11.142 8.01347 11.116 8.32204C11.09 8.63062 10.9881 8.92795 10.8192 9.1875C10.7981 9.21914 10.7758 9.24844 10.7524 9.27773L8.31251 12.1699C9.19024 13.9535 11.0559 15.8027 12.8629 16.6828L15.7152 14.2559C15.7433 14.2323 15.7726 14.2104 15.8031 14.1902C16.0625 14.0173 16.3608 13.9117 16.6712 13.883C16.9816 13.8544 17.2943 13.9036 17.5809 14.0262L17.5961 14.0332L23.1168 16.507C23.4886 16.6673 23.7986 16.9436 24.0003 17.2947C24.202 17.6458 24.2847 18.0527 24.2359 18.4547ZM22.375 18.2203C22.375 18.2203 22.3668 18.2203 22.3621 18.2203L16.8543 15.7535L14.0008 18.1805C13.9731 18.2039 13.9442 18.2258 13.9141 18.2461C13.6443 18.4261 13.3324 18.533 13.0089 18.5565C12.6853 18.5799 12.3613 18.519 12.0684 18.3797C9.87345 17.3191 7.68556 15.1477 6.62384 12.9762C6.48325 12.6854 6.42016 12.3632 6.44069 12.0409C6.46122 11.7185 6.56468 11.4069 6.74103 11.1363C6.7609 11.1046 6.78324 11.0744 6.80782 11.0461L9.25001 8.15039L6.78907 2.64258C6.78861 2.6379 6.78861 2.63319 6.78907 2.62852C5.65265 2.77676 4.60924 3.33418 3.85424 4.19638C3.09924 5.05859 2.68444 6.16646 2.68751 7.3125C2.69185 11.2894 4.2736 15.1022 7.0857 17.9143C9.89781 20.7264 13.7106 22.3082 17.6875 22.3125C18.8329 22.3164 19.9404 21.9031 20.8031 21.1497C21.6658 20.3964 22.2246 19.3546 22.375 18.2191V18.2203Z" fill="black"/>
</svg>
