<svg width="28" height="34" viewBox="0 0 28 34" fill="none" xmlns="http://www.w3.org/2000/svg">
<path opacity="0.2" d="M27.227 18.1498L2.46328 33.2955C2.25662 33.4209 2.02053 33.4897 1.77882 33.4948C1.53712 33.4999 1.29833 33.4412 1.08655 33.3246C0.874773 33.208 0.697483 33.0376 0.572558 32.8306C0.447633 32.6236 0.37949 32.3874 0.375 32.1456V1.85438C0.37949 1.61266 0.447633 1.37639 0.572558 1.16941C0.697483 0.962427 0.874773 0.792041 1.08655 0.675431C1.29833 0.558821 1.53712 0.500111 1.77882 0.505221C2.02053 0.51033 2.25662 0.579078 2.46328 0.704534L27.227 15.8502C27.4248 15.9699 27.5884 16.1386 27.7019 16.34C27.8155 16.5415 27.8751 16.7688 27.8751 17C27.8751 17.2312 27.8155 17.4585 27.7019 17.66C27.5884 17.8614 27.4248 18.0301 27.227 18.1498Z" fill="#FBBC04" fill-opacity="0.5"/>
</svg>
