<svg width="28" height="25" viewBox="0 0 28 25" fill="none" xmlns="http://www.w3.org/2000/svg">
<path d="M26.8217 1.06914C26.6764 0.943713 26.4997 0.860295 26.3105 0.827874C26.1214 0.795454 25.9269 0.815259 25.7482 0.885157L1.999 10.1793C1.66242 10.3102 1.37746 10.5469 1.18703 10.8537C0.996604 11.1605 0.911008 11.5209 0.943131 11.8806C0.975254 12.2403 1.12336 12.5799 1.36514 12.8481C1.60693 13.1164 1.92932 13.2988 2.28376 13.368L8.43728 14.5762V21.4375C8.43607 21.8112 8.54713 22.1767 8.75608 22.4866C8.96502 22.7964 9.26222 23.0364 9.60915 23.1754C9.95555 23.3168 10.3365 23.3508 10.7024 23.2728C11.0684 23.1949 11.4024 23.0086 11.6611 22.7383L14.6283 19.6609L19.3357 23.7813C19.6753 24.0825 20.1134 24.2492 20.5674 24.25C20.7663 24.2498 20.964 24.2186 21.1533 24.1574C21.4626 24.0593 21.7408 23.8818 21.9602 23.6427C22.1796 23.4036 22.3325 23.1111 22.4037 22.7945L27.1603 2.10156C27.2029 1.91494 27.1938 1.72026 27.1342 1.53838C27.0745 1.35651 26.9665 1.1943 26.8217 1.06914ZM19.6568 5.28789L9.15798 12.8066L3.34548 11.6664L19.6568 5.28789ZM10.3123 21.4375V15.8734L13.2174 18.4211L10.3123 21.4375ZM20.5697 22.375L10.8806 13.8789L24.826 3.88398L20.5697 22.375Z" fill="black"/>
</svg>
