<svg width="30" height="29" viewBox="0 0 30 29" fill="none" xmlns="http://www.w3.org/2000/svg">
<path d="M29.4731 26.8124C27.3314 23.1098 24.0309 20.4548 20.1792 19.1962C22.0844 18.062 23.5647 16.3337 24.3926 14.2768C25.2205 12.2199 25.3504 9.94811 24.7622 7.81026C24.1741 5.67242 22.9004 3.78675 21.1368 2.44284C19.3732 1.09894 17.2172 0.371094 15 0.371094C12.7827 0.371094 10.6267 1.09894 8.86311 2.44284C7.09953 3.78675 5.82585 5.67242 5.23768 7.81026C4.64951 9.94811 4.77937 12.2199 5.60731 14.2768C6.43525 16.3337 7.9155 18.062 9.82073 19.1962C5.96902 20.4534 2.66855 23.1084 0.526828 26.8124C0.448288 26.9405 0.396192 27.083 0.373616 27.2315C0.351039 27.38 0.358439 27.5316 0.395378 27.6772C0.432318 27.8228 0.498048 27.9596 0.588692 28.0794C0.679336 28.1992 0.793056 28.2996 0.923145 28.3747C1.05323 28.4499 1.19705 28.4982 1.34612 28.5169C1.49519 28.5355 1.64648 28.5241 1.79108 28.4834C1.93567 28.4426 2.07064 28.3733 2.18801 28.2795C2.30539 28.1858 2.4028 28.0694 2.47448 27.9374C5.12386 23.3587 9.80667 20.6249 15 20.6249C20.1932 20.6249 24.876 23.3587 27.5254 27.9374C27.5971 28.0694 27.6945 28.1858 27.8119 28.2795C27.9293 28.3733 28.0642 28.4426 28.2088 28.4834C28.3534 28.5241 28.5047 28.5355 28.6538 28.5169C28.8029 28.4982 28.9467 28.4499 29.0768 28.3747C29.2068 28.2996 29.3206 28.1992 29.4112 28.0794C29.5019 27.9596 29.5676 27.8228 29.6045 27.6772C29.6415 27.5316 29.6489 27.38 29.6263 27.2315C29.6037 27.083 29.5516 26.9405 29.4731 26.8124ZM7.12495 10.4999C7.12495 8.94239 7.58681 7.41984 8.45213 6.1248C9.31745 4.82977 10.5474 3.82041 11.9863 3.22437C13.4253 2.62833 15.0087 2.47238 16.5363 2.77624C18.0639 3.08009 19.4671 3.83011 20.5684 4.93145C21.6698 6.03279 22.4198 7.43598 22.7236 8.96358C23.0275 10.4912 22.8715 12.0746 22.2755 13.5136C21.6795 14.9525 20.6701 16.1824 19.3751 17.0477C18.08 17.9131 16.5575 18.3749 15 18.3749C12.9121 18.3727 10.9103 17.5423 9.43395 16.0659C7.95759 14.5896 7.12719 12.5878 7.12495 10.4999Z" fill="black"/>
</svg>
