<svg width="38" height="36" viewBox="0 0 38 36" fill="none" xmlns="http://www.w3.org/2000/svg">
<path d="M37.75 18C37.75 18.3315 37.6183 18.6495 37.3839 18.8839C37.1495 19.1183 36.8315 19.25 36.5 19.25H33.8953C33.5976 20.9966 32.6921 22.5817 31.3389 23.7253C29.9856 24.869 28.2718 25.4976 26.5 25.5H20.25V29.25H24C25.3261 29.25 26.5979 29.7768 27.5355 30.7145C28.4732 31.6521 29 32.9239 29 34.25C29 34.5815 28.8683 34.8995 28.6339 35.1339C28.3995 35.3683 28.0815 35.5 27.75 35.5C27.4185 35.5 27.1005 35.3683 26.8661 35.1339C26.6317 34.8995 26.5 34.5815 26.5 34.25C26.5 33.587 26.2366 32.9511 25.7678 32.4822C25.2989 32.0134 24.663 31.75 24 31.75H20.25V34.25C20.25 34.5815 20.1183 34.8995 19.8839 35.1339C19.6495 35.3683 19.3315 35.5 19 35.5C18.6685 35.5 18.3505 35.3683 18.1161 35.1339C17.8817 34.8995 17.75 34.5815 17.75 34.25V31.75H14C13.337 31.75 12.7011 32.0134 12.2322 32.4822C11.7634 32.9511 11.5 33.587 11.5 34.25C11.5 34.5815 11.3683 34.8995 11.1339 35.1339C10.8995 35.3683 10.5815 35.5 10.25 35.5C9.91848 35.5 9.60054 35.3683 9.36612 35.1339C9.1317 34.8995 9 34.5815 9 34.25C9 32.9239 9.52678 31.6521 10.4645 30.7145C11.4021 29.7768 12.6739 29.25 14 29.25H17.75V25.5H11.5C9.72824 25.4976 8.01435 24.869 6.66113 23.7253C5.30791 22.5817 4.40244 20.9966 4.10469 19.25H1.5C1.16848 19.25 0.850537 19.1183 0.616116 18.8839C0.381696 18.6495 0.25 18.3315 0.25 18C0.25 17.6685 0.381696 17.3505 0.616116 17.1161C0.850537 16.8817 1.16848 16.75 1.5 16.75H5.25C5.58152 16.75 5.89946 16.8817 6.13388 17.1161C6.3683 17.3505 6.5 17.6685 6.5 18C6.5 19.3261 7.02678 20.5979 7.96447 21.5355C8.90215 22.4732 10.1739 23 11.5 23H26.5C27.8261 23 29.0979 22.4732 30.0355 21.5355C30.9732 20.5979 31.5 19.3261 31.5 18C31.5 17.6685 31.6317 17.3505 31.8661 17.1161C32.1005 16.8817 32.4185 16.75 32.75 16.75H36.5C36.8315 16.75 37.1495 16.8817 37.3839 17.1161C37.6183 17.3505 37.75 17.6685 37.75 18ZM9.61094 19.6375C9.37644 19.367 9.20277 19.0493 9.10168 18.7059C9.00059 18.3624 8.97444 18.0013 9.025 17.6469L11.1687 2.64687C11.2562 2.05212 11.5541 1.50843 12.0082 1.11452C12.4623 0.720607 13.0426 0.502574 13.6438 0.5H24.3563C24.9574 0.502574 25.5377 0.720607 25.9918 1.11452C26.4459 1.50843 26.7438 2.05212 26.8312 2.64687L28.975 17.6469C29.0256 18.0014 28.9994 18.3627 28.8982 18.7063C28.797 19.0498 28.6232 19.3677 28.3885 19.6382C28.1539 19.9087 27.8638 20.1257 27.5379 20.2744C27.2121 20.4231 26.8581 20.5 26.5 20.5H11.5C11.1417 20.5 10.7876 20.423 10.4617 20.2742C10.1358 20.1254 9.84562 19.9082 9.61094 19.6375ZM11.5 18H26.5L24.3563 3H13.6422L11.5 18Z" fill="black"/>
</svg>
